<?xml version="1.0" standalone="no"?>
<!DOCTYPE svg PUBLIC "-//W3C//DTD SVG 1.1//EN" "http://www.w3.org/Graphics/SVG/1.1/DTD/svg11.dtd">
<svg width="100%" height="100%" viewBox="0 0 300 340" version="1.1" xmlns="http://www.w3.org/2000/svg" xmlns:xlink="http://www.w3.org/1999/xlink" xml:space="preserve" style="fill-rule:evenodd;clip-rule:evenodd;stroke-linejoin:round;stroke-miterlimit:1.41421;">
    <g transform="matrix(0.05,0,0,-0.05,0,340)">
        <path d="M4185,6040C4230,6018 3731,6277 3736,6262C3741,6247 3736,6240 3726,6247C3715,6253 3640,6264 3559,6270C3479,6276 3408,6285 3403,6290C3398,6295 3384,6292 3372,6283C3335,6255 3277,6239 3290,6260C3298,6272 3256,6280 3181,6280C3087,6280 3060,6273 3060,6250C3060,6216 3009,6209 2990,6240C2967,6277 2921,6260 2908,6210C2901,6183 2888,6160 2880,6160C2871,6160 2868,6177 2874,6198C2879,6219 2874,6242 2862,6249C2850,6256 2840,6253 2840,6241C2840,6230 2818,6220 2790,6220C2763,6220 2740,6211 2740,6201C2740,6190 2697,6169 2645,6153C2520,6115 2358,6041 2324,6007C2309,5992 2288,5980 2278,5980C2267,5980 2211,5933 2152,5875C2094,5817 1982,5709 1903,5634C1824,5559 1760,5490 1760,5482C1760,5413 1676,5368 1601,5279C1568,5241 1541,5203 1541,5194C1540,5185 1526,5163 1508,5146C1491,5128 1481,5097 1487,5077C1492,5055 1486,5040 1470,5040C1456,5040 1425,4998 1401,4947C1377,4896 1344,4841 1329,4826C1313,4810 1300,4780 1300,4758C1300,4714 1261,4637 1228,4616C1215,4608 1209,4580 1214,4554C1220,4526 1210,4493 1190,4473C1172,4455 1163,4431 1171,4419C1178,4407 1168,4380 1150,4359C1131,4339 1120,4309 1126,4293C1132,4277 1123,4211 1107,4147C1039,3888 1083,3303 1190,3035C1206,2996 1210,2969 1210,2969L1260,2877C1359,2695 1491,2549 1614,2488C1678,2456 1733,2428 1737,2427C1740,2425 1724,2397 1701,2365C1677,2334 1657,2289 1655,2265C1652,2222 1548,2153 1507,2075C1489,2039 1470,1974 1465,1930C1461,1886 1449,1821 1440,1785C1430,1745 1431,1720 1442,1720C1454,1720 1453,1703 1440,1680C1428,1657 1423,1606 1429,1565C1435,1524 1441,1456 1444,1415C1446,1374 1457,1340 1468,1340C1481,1340 1480,1332 1467,1319C1440,1292 1474,1104 1514,1057C1532,1036 1537,1006 1528,969C1519,932 1521,918 1536,927C1548,935 1563,932 1569,922C1575,911 1572,897 1562,891C1528,870 1575,654 1632,565C1648,540 1654,520 1645,520C1637,520 1644,511 1660,500C1678,489 1680,480 1666,480C1626,480 1760,152 1849,33C1926,-69 1959,7 1888,126C1809,260 1804,290 1860,295C1883,296 1896,289 1889,279C1883,268 1891,260 1907,260C1934,260 1965,179 1969,100C1969,82 1985,73 2006,76C2032,80 2040,72 2036,46C2032,21 2045,8 2078,3L2127,-4L2073,60C2044,95 2020,132 2020,143C2020,173 2135,75 2146,35C2153,10 2176,0 2223,1C2280,1 2285,5 2258,26C2194,75 2017,303 1971,395C1908,524 1831,758 1847,774C1866,793 1910,745 1911,704C1913,650 1941,580 1961,580C1972,580 1980,567 1980,550C1980,534 1990,520 2002,520C2014,520 2019,506 2012,489C1983,412 2223,166 2381,110C2510,64 2789,64 2840,110C2880,146 2897,213 2860,190C2849,183 2840,188 2840,201C2840,215 2860,221 2889,215C2923,209 2952,220 2983,253C3007,279 3041,300 3058,300C3096,300 3197,441 3261,580C3274,608 3292,646 3302,665C3312,684 3320,714 3320,731C3320,780 3385,894 3396,863C3401,848 3395,817 3384,793C3354,730 3322,579 3341,590C3350,596 3372,648 3391,705C3410,763 3433,820 3442,832C3452,844 3454,859 3447,866C3440,873 3448,899 3463,924C3510,998 3544,1138 3530,1202C3516,1262 3529,1272 3578,1242C3595,1231 3599,1215 3588,1197C3578,1182 3569,1152 3566,1130C3564,1108 3557,1067 3549,1038C3539,996 3545,983 3576,975C3605,968 3620,976 3627,1003C3635,1035 3632,1038 3608,1019C3574,990 3573,1006 3603,1110C3625,1186 3627,1187 3641,1140L3656,1090L3658,1144C3659,1173 3651,1203 3640,1210C3629,1217 3625,1247 3631,1276C3642,1328 3641,1328 3611,1291C3573,1244 3571,1274 3603,1383C3630,1473 3660,1484 3660,1405C3661,1365 3666,1358 3678,1378C3688,1393 3696,1461 3696,1527C3696,1598 3705,1652 3718,1656C3730,1660 3734,1674 3726,1687C3718,1700 3727,1698 3745,1683C3800,1639 3741,1096 3666,951C3605,834 3600,820 3600,780C3600,758 3613,740 3630,740C3647,740 3660,758 3660,779C3660,840 3704,923 3731,912C3747,906 3752,917 3745,941C3740,963 3744,980 3755,980C3766,980 3775,1000 3775,1025C3776,1050 3790,1111 3808,1160C3825,1210 3840,1275 3840,1305C3840,1335 3850,1360 3861,1360C3873,1360 3869,1374 3853,1390C3827,1416 3826,1427 3851,1474C3872,1516 3873,1532 3854,1544C3835,1556 3835,1559 3854,1560C3869,1560 3874,1574 3866,1593C3858,1615 3862,1622 3882,1616C3897,1610 3909,1591 3907,1573C3905,1551 3919,1541 3947,1542C3971,1542 3979,1548 3965,1553C3946,1561 3946,1573 3962,1605C3981,1639 3980,1644 3953,1634C3935,1627 3923,1628 3925,1636C3928,1644 3885,1692 3830,1743C3695,1868 3654,1977 3745,1962C3775,1958 3759,1994 3711,2040C3648,2099 3641,2083 3640,1880C3640,1771 3601,1608 3547,1485C3519,1423 3501,1351 3506,1326C3511,1298 3505,1280 3490,1280C3476,1280 3459,1244 3452,1199C3445,1155 3431,1123 3421,1130C3398,1144 3360,1077 3360,1021C3360,999 3351,980 3340,980C3329,980 3320,954 3320,922C3320,889 3307,859 3290,853C3274,846 3260,828 3260,811C3260,795 3234,752 3203,716C3171,680 3139,630 3131,605C3124,580 3109,560 3099,560C3088,560 3080,546 3080,529C3080,513 3066,494 3050,487C3033,481 3005,445 2988,408C2970,371 2946,340 2935,340C2924,340 2894,317 2868,290C2842,262 2814,240 2806,241C2798,242 2785,227 2777,206C2769,186 2762,179 2761,191C2760,215 2682,217 2646,194C2558,138 2133,582 2009,860C1992,899 1966,957 1951,990C1936,1023 1904,1095 1879,1150C1855,1205 1835,1276 1836,1308C1837,1340 1826,1403 1811,1448C1730,1699 1712,2091 1775,2235C1833,2368 1897,2586 1924,2744C1942,2844 1957,2880 1984,2887C2005,2892 2020,2915 2020,2939C2020,2963 2011,2977 2000,2970C1989,2963 1980,2971 1980,2988C1980,3004 1988,3023 1998,3029C2008,3035 2023,3077 2030,3123C2038,3168 2051,3195 2059,3182C2068,3167 2082,3177 2099,3209C2118,3243 2120,3267 2106,3284C2050,3354 2000,3547 2002,3686C2003,3811 2050,4015 2061,3945C2063,3931 2067,3911 2070,3900C2073,3889 2077,3828 2079,3765C2087,3580 2116,3715 2118,3945C2121,4223 2285,4521 2493,4627C2527,4644 2561,4673 2568,4691C2579,4722 2584,4722 2630,4692C2694,4650 2725,4651 2711,4697C2692,4756 2779,4785 2821,4734C2838,4713 2888,4688 2931,4679C2995,4666 2983,4664 2875,4669C2638,4681 2708,4632 2959,4610C3034,4604 3102,4586 3123,4568C3152,4541 3169,4540 3229,4560C3302,4584 3308,4620 3239,4620C3192,4620 3187,4651 3231,4668C3248,4674 3257,4689 3250,4700C3243,4711 3251,4715 3267,4708C3298,4696 3308,4717 3329,4846C3339,4902 3349,4918 3366,4904C3398,4878 3480,4911 3480,4949C3480,4966 3497,4980 3519,4980C3565,4980 3601,5039 3621,5146C3631,5198 3628,5219 3612,5214C3600,5210 3589,5198 3588,5188C3581,5115 3481,5077 3480,5147C3480,5160 3471,5157 3460,5140C3432,5097 3435,5080 3468,5092C3483,5098 3502,5093 3509,5081C3517,5069 3508,5054 3491,5048C3474,5041 3460,5023 3460,5006C3460,4958 3394,4986 3390,5036C3383,5131 3317,5166 3128,5176C3002,5183 2958,5179 2968,5163C2976,5150 2973,5140 2961,5140C2950,5140 2940,5149 2940,5159C2940,5183 2878,5163 2850,5131C2839,5118 2814,5102 2795,5094C2776,5087 2760,5067 2760,5049C2760,5032 2768,5023 2778,5029C2847,5071 3194,5057 3245,5009C3274,4982 3308,4960 3319,4960C3344,4960 3345,4939 3322,4902C3300,4868 3258,4891 3273,4929C3290,4974 3150,4993 3109,4952C3091,4934 3041,4919 2994,4918C2948,4916 2928,4911 2950,4906C3077,4875 2978,4844 2797,4858C2724,4864 2600,4809 2600,4771C2600,4754 2591,4740 2580,4740C2569,4740 2560,4754 2560,4770C2560,4787 2549,4800 2535,4800C2515,4801 2515,4804 2535,4817C2549,4826 2565,4854 2570,4879C2575,4905 2594,4943 2613,4964C2632,4985 2650,5022 2654,5046C2668,5154 2688,5188 2788,5287C2846,5344 2904,5409 2915,5431C2956,5508 3127,5680 3162,5680C3182,5680 3203,5689 3210,5700C3217,5711 3212,5720 3200,5720C3158,5720 3203,5761 3287,5800C3405,5856 3546,5878 3718,5867C3861,5859 3866,5860 3835,5894C3804,5928 3810,5930 3953,5932C4122,5933 4159,5958 4109,6035C4072,6090 4080,6091 4185,6040ZM3880,6222C3880,6212 3903,6199 3930,6192C3958,6185 3980,6165 3980,6148C3980,6120 3977,6120 3949,6149C3911,6186 3896,6188 3864,6156C3845,6137 3840,6144 3840,6186C3840,6216 3849,6240 3860,6240C3871,6240 3880,6232 3880,6222ZM3605,6183C3669,6178 3641,6149 3545,6121C3493,6106 3426,6078 3398,6058C3369,6038 3339,6028 3331,6036C3323,6043 3304,6032 3288,6010C3271,5988 3251,5970 3241,5970C3232,5970 3201,5945 3173,5915C3143,5882 3110,5865 3092,5872C3072,5880 3058,5868 3050,5836C3039,5795 3027,5789 2964,5794C2923,5797 2901,5795 2915,5788C2952,5771 2946,5748 2889,5691C2842,5644 2814,5631 2774,5638C2764,5640 2763,5632 2770,5620C2777,5609 2762,5566 2737,5525C2711,5484 2693,5443 2695,5434C2698,5426 2687,5414 2670,5407C2654,5401 2640,5373 2640,5346C2640,5302 2633,5297 2590,5308C2563,5315 2540,5312 2540,5302C2540,5292 2535,5269 2528,5252C2520,5230 2527,5220 2551,5220C2582,5220 2583,5216 2557,5185C2540,5166 2516,5112 2503,5065C2487,5011 2467,4980 2447,4980C2429,4980 2420,4969 2426,4952C2448,4896 2398,4766 2343,4737C2314,4722 2278,4694 2264,4675C2232,4633 2171,4627 2186,4668C2203,4712 2177,4723 2148,4685C2113,4639 2113,4620 2150,4620C2167,4620 2180,4606 2180,4588C2180,4566 2169,4560 2146,4569C2127,4576 2117,4576 2124,4569C2142,4551 1948,4177 1901,4137C1879,4120 1866,4100 1872,4095C1878,4089 1860,4061 1833,4032C1753,3945 1755,3843 1836,3924C1854,3942 1860,3942 1860,3924C1860,3911 1838,3895 1810,3888C1771,3879 1760,3863 1760,3819C1760,3788 1751,3757 1740,3750C1729,3743 1720,3716 1720,3689C1720,3662 1729,3640 1740,3640C1751,3640 1760,3657 1760,3679C1760,3715 1838,3789 1856,3770C1861,3766 1846,3730 1824,3692C1798,3648 1791,3620 1805,3615C1828,3607 1845,3540 1823,3540C1816,3540 1808,3484 1805,3415C1803,3346 1808,3301 1817,3315C1849,3366 1934,3100 1908,3031C1891,2989 1830,3066 1805,3161L1786,3230L1778,3145C1773,3098 1776,3060 1786,3060C1795,3060 1797,3052 1791,3041C1785,3031 1789,3017 1800,3010C1813,3002 1809,2986 1790,2967C1773,2950 1764,2916 1769,2888C1775,2855 1768,2840 1747,2840C1731,2840 1722,2833 1728,2824C1743,2798 1706,2753 1664,2747C1642,2744 1619,2755 1612,2773C1604,2792 1587,2799 1566,2791C1548,2784 1526,2790 1517,2804C1506,2822 1521,2837 1566,2853C1601,2866 1614,2878 1595,2878C1576,2879 1560,2891 1560,2905C1559,2923 1555,2922 1542,2902C1531,2885 1514,2881 1497,2892C1482,2901 1458,2911 1443,2913C1406,2919 1390,2937 1408,2954C1416,2962 1429,2957 1438,2943C1451,2923 1457,2925 1468,2952C1475,2971 1471,2993 1458,3001C1445,3009 1440,3025 1447,3036C1458,3054 1408,3089 1378,3084C1356,3080 1366,3150 1392,3181C1415,3207 1409,3217 1351,3248C1285,3283 1285,3285 1322,3322C1360,3360 1375,3412 1342,3391C1323,3379 1291,3478 1309,3496C1315,3502 1320,3494 1320,3478C1321,3454 1323,3454 1338,3478C1350,3497 1346,3516 1328,3535C1295,3567 1291,3600 1320,3600C1331,3600 1340,3590 1340,3579C1340,3567 1350,3564 1363,3572C1393,3590 1322,3645 1286,3631C1255,3619 1253,3630 1280,3680C1292,3702 1293,3722 1282,3729C1253,3747 1281,3818 1322,3831C1343,3837 1361,3849 1362,3856C1362,3864 1367,3888 1373,3910C1383,3952 1391,3989 1412,4090C1419,4123 1438,4161 1454,4174C1481,4195 1526,4437 1507,4458C1503,4463 1500,4456 1500,4442C1500,4429 1491,4423 1480,4430C1460,4442 1455,4428 1455,4345C1455,4320 1442,4300 1426,4300C1411,4300 1400,4289 1402,4275C1409,4235 1335,4000 1316,4000C1293,4000 1312,4096 1343,4133C1362,4157 1362,4166 1342,4179C1324,4190 1323,4199 1337,4208C1349,4216 1369,4260 1382,4306C1394,4352 1411,4395 1420,4400C1429,4406 1440,4424 1443,4440C1447,4456 1461,4479 1474,4490C1487,4501 1500,4528 1504,4550C1507,4572 1515,4595 1520,4600C1545,4624 1600,4720 1589,4720C1582,4720 1552,4703 1523,4683C1422,4614 1419,4618 1481,4739C1515,4805 1540,4876 1537,4895C1534,4914 1555,4954 1585,4984C1618,5016 1644,5069 1652,5119C1662,5178 1675,5200 1701,5200C1728,5200 1734,5189 1725,5155C1719,5130 1720,5115 1727,5121C1734,5128 1744,5166 1749,5207C1762,5308 1776,5328 1816,5296C1836,5280 1842,5279 1834,5294C1812,5329 1862,5420 1903,5420C1938,5420 1988,5485 1968,5505C1962,5511 1967,5522 1979,5529C1990,5536 2000,5531 2000,5516C2001,5486 2079,5579 2080,5610C2080,5621 2098,5642 2121,5656C2143,5670 2157,5688 2152,5697C2147,5705 2160,5723 2180,5736C2205,5751 2222,5752 2231,5739C2238,5728 2259,5739 2281,5765C2302,5790 2319,5802 2319,5793C2321,5760 2380,5825 2380,5859C2380,5878 2403,5904 2431,5917C2459,5930 2477,5949 2470,5960C2463,5971 2467,5980 2479,5980C2490,5980 2500,5969 2500,5955C2501,5938 2507,5940 2522,5960C2539,5984 2542,5981 2534,5945C2520,5884 2536,5888 2561,5952C2576,5993 2590,6002 2624,5993C2651,5986 2677,5994 2695,6016C2715,6041 2725,6043 2733,6025C2744,5999 2815,5992 2868,6012C2922,6033 2903,6058 2840,6049C2807,6045 2780,6050 2780,6061C2780,6071 2790,6080 2801,6080C2813,6080 2817,6089 2810,6100C2803,6111 2812,6114 2831,6107C2850,6100 2872,6106 2882,6122C2897,6146 2899,6146 2900,6122C2900,6098 2906,6099 2935,6124C2954,6140 2984,6159 3002,6165C3042,6179 3098,6146 3070,6125C3049,6109 3031,6040 3048,6040C3054,6040 3073,6072 3091,6110C3128,6187 3143,6194 3179,6151C3197,6129 3216,6127 3255,6142C3290,6155 3313,6155 3327,6141C3354,6114 3406,6114 3390,6140C3362,6185 3426,6198 3605,6183ZM3114,4760C3117,4743 3098,4715 3073,4696C3027,4663 3026,4664 3030,4706C3033,4730 3036,4762 3037,4776C3041,4812 3108,4797 3114,4760ZM1250,4036C1246,4001 1252,3959 1265,3944C1284,3921 1281,3917 1249,3923C1228,3927 1211,3942 1212,3955C1213,3969 1215,4007 1217,4040C1219,4073 1229,4100 1239,4100C1250,4100 1254,4071 1250,4036ZM1743,1375C1745,1350 1746,1317 1745,1302C1744,1286 1752,1251 1762,1224C1783,1169 1767,1093 1738,1111C1728,1118 1725,1131 1731,1141C1737,1152 1732,1194 1718,1235C1705,1276 1691,1324 1686,1340C1679,1365 1674,1363 1657,1333C1642,1307 1642,1290 1658,1274C1670,1262 1680,1229 1680,1200C1680,1171 1690,1138 1702,1126C1714,1114 1718,1093 1710,1079C1690,1047 1647,1149 1628,1274C1612,1385 1613,1392 1650,1384C1665,1381 1683,1388 1690,1399C1712,1435 1740,1422 1743,1375ZM3452,1011C3436,980 3428,943 3434,928C3440,911 3431,900 3410,900C3369,900 3382,977 3435,1060C3476,1123 3490,1084 3452,1011ZM1812,1057C1820,1044 1829,1015 1832,992C1835,969 1844,916 1852,875C1866,796 1814,759 1794,835C1787,862 1784,859 1782,826C1781,795 1771,785 1750,793C1703,811 1713,876 1765,884C1789,887 1813,907 1817,927C1821,949 1815,959 1803,952C1785,941 1760,987 1748,1055C1742,1086 1793,1088 1812,1057ZM1672,810C1665,781 1668,760 1680,760C1691,760 1700,743 1700,722C1700,701 1715,679 1733,672C1751,665 1760,653 1753,646C1746,639 1749,623 1760,610C1771,597 1782,560 1784,528C1786,496 1793,461 1801,450C1834,401 1837,338 1806,344C1774,350 1759,385 1673,654C1614,839 1612,847 1640,830C1651,823 1660,827 1660,839C1660,850 1665,860 1672,860C1679,860 1679,838 1672,810ZM2041,642C2097,516 2176,436 2229,453C2263,464 2266,461 2245,436C2224,410 2238,387 2335,292C2398,230 2433,185 2413,192C2390,201 2369,195 2358,178C2344,155 2341,156 2340,182C2340,200 2303,240 2258,271C2143,351 1940,665 1940,764C1940,806 2001,733 2041,642Z" style="fill:black;fill-rule:nonzero;"/>
        <path d="M2458,5820C2453,5780 2449,5770 2434,5745C2410,5708 2435,5715 2476,5756C2496,5776 2509,5803 2505,5816C2495,5845 2461,5848 2458,5820Z" style="fill:black;fill-rule:nonzero;"/>
        <path d="M2698,5773C2681,5737 2680,5712 2693,5699C2720,5672 2762,5764 2740,5801C2727,5821 2717,5814 2698,5773Z" style="fill:black;fill-rule:nonzero;"/>
        <path d="M2201,5511C2190,5483 2170,5460 2156,5460C2138,5460 2137,5455 2156,5436C2174,5418 2170,5401 2135,5363C2110,5336 2104,5320 2120,5328C2137,5336 2134,5330 2114,5313C2074,5281 2000,5146 2000,5106C2000,5093 1982,5072 1960,5060C1918,5037 1908,4970 1940,4920C1954,4898 1959,4897 1960,4916C1960,4931 1971,4955 1985,4969C1999,4984 2026,5015 2046,5039C2065,5062 2088,5077 2097,5072C2106,5067 2111,5100 2108,5146C2102,5254 2115,5271 2159,5217C2194,5173 2194,5173 2219,5276C2233,5333 2254,5380 2267,5380C2280,5380 2277,5389 2260,5400C2235,5416 2234,5426 2256,5460C2277,5495 2276,5507 2251,5532C2223,5560 2218,5558 2201,5511Z" style="fill:black;fill-rule:nonzero;"/>
        <path d="M2531,5428C2522,5392 2527,5368 2544,5357C2580,5334 2620,5336 2620,5360C2620,5371 2610,5380 2599,5380C2587,5380 2580,5399 2584,5423C2593,5487 2547,5491 2531,5428Z" style="fill:black;fill-rule:nonzero;"/>
        <path d="M1764,5021C1724,4968 1659,4930 1689,4978C1706,5005 1679,5062 1656,5047C1643,5040 1646,5028 1663,5018C1684,5004 1685,5001 1664,5000C1649,5000 1643,4992 1649,4982C1655,4972 1642,4925 1620,4877C1572,4771 1566,4714 1609,4771C1626,4793 1640,4803 1642,4795C1653,4744 1650,4727 1625,4697C1609,4678 1595,4651 1593,4637C1591,4622 1582,4599 1573,4585C1565,4571 1565,4560 1574,4560C1583,4560 1578,4552 1564,4543C1547,4532 1542,4508 1551,4472C1573,4387 1625,4469 1679,4670C1687,4703 1708,4762 1725,4800C1834,5049 1850,5137 1764,5021Z" style="fill:black;fill-rule:nonzero;"/>
        <path d="M2059,5005C2041,4985 2031,4958 2035,4946C2039,4934 2029,4893 2013,4855C1985,4787 1985,4787 2032,4796C2063,4801 2080,4818 2080,4844C2080,4865 2071,4877 2060,4870C2027,4850 2037,4884 2072,4909C2091,4923 2101,4953 2097,4987C2090,5039 2089,5040 2059,5005Z" style="fill:black;fill-rule:nonzero;"/>
        <path d="M1874,4908C1866,4900 1860,4873 1860,4849C1860,4825 1846,4794 1830,4780C1813,4766 1803,4750 1809,4745C1814,4739 1806,4705 1790,4667C1772,4624 1770,4600 1783,4600C1796,4600 1794,4586 1777,4566C1758,4543 1758,4537 1775,4547C1791,4557 1806,4549 1815,4526C1831,4487 1880,4467 1880,4500C1880,4511 1892,4520 1907,4520C1921,4520 1935,4534 1937,4550C1939,4567 1942,4593 1943,4609C1945,4625 1959,4643 1973,4649C2030,4670 2001,4749 1939,4744C1933,4743 1927,4763 1925,4788C1919,4856 1890,4924 1874,4908ZM1884,4695C1877,4667 1881,4658 1897,4668C1911,4677 1915,4671 1908,4651C1901,4634 1883,4620 1868,4620C1852,4620 1846,4608 1853,4590C1859,4574 1854,4560 1842,4560C1804,4560 1808,4652 1849,4700C1863,4717 1871,4744 1866,4760C1859,4784 1861,4785 1876,4763C1887,4748 1890,4717 1884,4695Z" style="fill:black;fill-rule:nonzero;"/>
        <path d="M1754,4494C1747,4474 1751,4460 1764,4460C1777,4460 1767,4439 1743,4414C1692,4359 1688,4329 1732,4312C1778,4294 1779,4295 1770,4362C1764,4409 1769,4421 1792,4412C1814,4404 1817,4409 1803,4435C1793,4454 1781,4483 1776,4499C1769,4522 1765,4521 1754,4494Z" style="fill:black;fill-rule:nonzero;"/>
        <path d="M1680,4240C1652,4188 1672,4155 1722,4171C1743,4177 1760,4173 1760,4161C1760,4150 1747,4140 1730,4140C1714,4140 1702,4129 1705,4115C1708,4101 1699,4092 1685,4095C1670,4098 1660,4079 1660,4050C1660,4023 1671,4000 1683,4000C1696,4000 1701,4006 1694,4013C1676,4031 1720,4082 1742,4069C1752,4063 1754,4072 1748,4089C1741,4106 1746,4120 1758,4120C1790,4120 1785,4218 1751,4251C1714,4289 1705,4288 1680,4240Z" style="fill:black;fill-rule:nonzero;"/>
        <path d="M1620,3994C1620,3977 1633,3950 1649,3934C1671,3912 1672,3900 1654,3882C1635,3863 1638,3861 1665,3871C1710,3888 1709,3912 1660,3975C1632,4010 1620,4016 1620,3994Z" style="fill:black;fill-rule:nonzero;"/>
        <path d="M1560,3924C1560,3904 1570,3878 1582,3866C1597,3851 1598,3833 1583,3805C1568,3777 1568,3760 1585,3743C1602,3726 1598,3712 1569,3688C1534,3659 1536,3659 1585,3688C1615,3706 1640,3714 1640,3705C1640,3697 1649,3703 1659,3720C1672,3740 1668,3760 1646,3785C1628,3804 1621,3820 1629,3820C1638,3820 1630,3843 1611,3871C1593,3898 1584,3930 1590,3941C1597,3951 1593,3960 1581,3960C1570,3960 1560,3944 1560,3924Z" style="fill:black;fill-rule:nonzero;"/>
        <path d="M1670,3480C1677,3469 1669,3465 1653,3472C1637,3478 1619,3474 1612,3463C1606,3453 1615,3439 1632,3432C1658,3422 1660,3414 1640,3390C1627,3374 1608,3365 1599,3371C1590,3376 1576,3370 1568,3357C1560,3343 1562,3339 1576,3347C1587,3355 1604,3350 1612,3337C1622,3321 1632,3327 1643,3357C1663,3412 1700,3413 1700,3359C1700,3336 1691,3323 1680,3330C1669,3337 1666,3329 1673,3310C1686,3277 1733,3281 1726,3315C1724,3325 1720,3371 1717,3417C1714,3471 1703,3500 1685,3500C1670,3500 1663,3491 1670,3480Z" style="fill:black;fill-rule:nonzero;"/>
        <path d="M1643,3227C1623,3205 1624,3200 1649,3200C1666,3200 1680,3191 1680,3180C1680,3169 1689,3160 1700,3160C1711,3160 1720,3181 1720,3207C1720,3258 1682,3268 1643,3227Z" style="fill:black;fill-rule:nonzero;"/>
        <path d="M1640,3058C1616,3040 1617,3039 1650,3049C1679,3059 1684,3056 1668,3040C1643,3015 1655,2920 1684,2920C1694,2920 1697,2928 1691,2938C1685,2948 1688,2960 1698,2963C1708,2967 1719,2992 1723,3020C1731,3075 1689,3094 1640,3058Z" style="fill:black;fill-rule:nonzero;"/>
        <path d="M4249,5820C4249,5798 4256,5779 4264,5778C4303,5771 4312,5768 4336,5753C4357,5740 4355,5731 4327,5710C4297,5688 4281,5692 4221,5736L4150,5788L4195,5738C4220,5710 4240,5681 4240,5672C4240,5664 4278,5618 4324,5571C4404,5488 4443,5393 4387,5414C4372,5420 4360,5411 4360,5394C4360,5378 4374,5359 4391,5352C4411,5345 4418,5327 4411,5303C4401,5273 4408,5266 4447,5271C4487,5275 4494,5267 4496,5218C4497,5186 4489,5164 4479,5171C4468,5177 4460,5195 4460,5211C4460,5226 4448,5234 4434,5229C4417,5222 4408,5182 4409,5111C4410,5052 4417,5008 4425,5013C4440,5023 4453,4750 4445,4571C4442,4517 4425,4427 4405,4371C4380,4297 4370,4204 4369,4020L4368,3770L4255,3442C4096,2982 3970,2784 3787,2708C3733,2685 3725,2671 3723,2606C3722,2564 3708,2467 3691,2390C3630,2108 3664,2067 3760,2306C3788,2374 3822,2430 3836,2430C3869,2430 3899,2479 3886,2513C3880,2529 3889,2540 3909,2540C3927,2540 3937,2548 3931,2559C3907,2597 3942,2630 3956,2644C3978,2666 4224.86,2781.23 4230,2788C4284,2859 4409,3009 4441,2989C4467,2973 4558,3073 4559,3118C4560,3133 4588,3227 4623,3328C4658,3428 4685,3539 4683,3575C4680,3611 4689,3660 4702,3683C4715,3707 4727,3829 4729,3957C4731,4094 4741,4190 4754,4195C4765,4198 4770,4223 4765,4250C4760,4277 4748,4295 4739,4289C4730,4284 4718,4288 4712,4298C4705,4308 4722,4321 4748,4328C4798,4340 4786,4444 4731,4483C4720,4492 4722,4508 4736,4525C4754,4546 4753,4559 4735,4579C4715,4601 4717,4604 4745,4594C4787,4579 4792,4631 4757,4709C4739,4748 4739,4771 4757,4805C4776,4841 4775,4870 4750,4950C4733,5005 4710,5099 4700,5158C4665,5357 4552,5632 4461,5739C4429,5776 4408,5818 4414,5833C4422,5853 4402,5860 4336,5860C4262,5860 4249,5854 4249,5820ZM4560,4222C4560,4201 4547,4179 4530,4173C4498,4160 4493,4177 4512,4228C4529,4272 4560,4268 4560,4222Z" style="fill:black;fill-rule:nonzero;"/>
        <path d="M3740,5129C3741,5097 3729,5010 3714,4937C3690,4824 3690,4799 3712,4776C3727,4761 3747,4708 3757,4657C3766,4607 3798,4534 3827,4496C3856,4458 3880,4411 3880,4393C3880,4372 3897,4360 3926,4360C3951,4360 4007,4342 4050,4320C4144,4272 4183,4269 4167,4310C4160,4329 4168,4340 4188,4340C4206,4340 4220,4326 4220,4309C4220,4284 4228,4283 4262,4301C4333,4339 4278,4531 4195,4534C4181,4535 4125,4551 4070,4571C4015,4590 3957,4610 3940,4614C3916,4621 3918,4629 3950,4656C3973,4675 3988,4706 3984,4725C3980,4744 3984,4761 3994,4762C4135,4778 4178,4772 4274,4720C4386,4661 4411,4662 4377,4726C4311,4849 4161,4931 4052,4902C3923,4869 3893,4869 3846,4901C3805,4930 3794,4958 3767,5110C3752,5191 3738,5201 3740,5129ZM4193,4414C4191,4380 4179,4369 4150,4372C4128,4375 4092,4378 4070,4380C4032,4383 4033,4384 4075,4404C4100,4416 4120,4434 4120,4443C4120,4452 4137,4460 4158,4460C4185,4460 4195,4447 4193,4414Z" style="fill:black;fill-rule:nonzero;"/>
        <path d="M3671,4321C3641,4290 3620,4252 3624,4236C3631,4202 3579,4060 3559,4060C3532,4060 3420,3939 3420,3910C3420,3860 3464,3876 3544,3954C3623,4031 3718,4009 3694,3920C3689,3900 3699,3889 3723,3889C3743,3889 3760,3896 3760,3904C3760,3913 3774,3920 3790,3920C3807,3920 3820,3937 3820,3959C3820,4008 3852,4029 3867,3990C3874,3973 3869,3960 3858,3960C3847,3960 3852,3946 3869,3928C3887,3910 3913,3901 3929,3907C3962,3920 3907,4060 3869,4060C3855,4060 3847,4095 3848,4151C3849,4201 3841,4248 3830,4256C3819,4264 3810,4287 3810,4308C3810,4376 3731,4384 3671,4321Z" style="fill:black;fill-rule:nonzero;"/>
        <path d="M3095,4346C3076,4341 3060,4329 3060,4319C3060,4309 3032,4287 2998,4269C2908,4222 2782,4098 2794,4067C2800,4052 2794,4040 2782,4040C2770,4040 2760,4031 2760,4020C2760,4009 2741,3981 2718,3958C2685,3925 2678,3899 2686,3839C2695,3766 2662,3550 2629,3472C2617,3443 2620,3437 2640,3450C2658,3461 2661,3459 2650,3440C2640,3424 2647,3404 2670,3388C2741,3336 2797,3462 2802,3683C2804,3758 3176,3764 3453,3693C3656,3641 3907,3466 3859,3409C3848,3395 3844,3360 3851,3332C3859,3300 3856,3280 3843,3280C3831,3280 3826,3267 3833,3250C3850,3206 3900,3213 3903,3260C3904,3282 3906,3325 3908,3355C3909,3385 3928,3430 3949,3454C3971,3480 3991,3538 3995,3594C4003,3690 3987,3707 3970,3620C3959,3564 3937,3542 3926,3575C3921,3589 3900,3600 3881,3600C3861,3600 3830,3622 3812,3649C3743,3755 3698,3780 3579,3780C3489,3780 3458,3789 3428,3822C3393,3862 3378,3864 3230,3850C3142,3842 3016,3834 2950,3832C2884,3830 2819,3822 2805,3813C2717,3758 2807,3882 2950,4014C3208,4250 3269,4392 3095,4346Z" style="fill:black;fill-rule:nonzero;"/>
        <path d="M3336,4249C3242,4198 3219,4102 3300,4100C3336,4100 3589,4198 3595,4215C3612,4265 3413,4291 3336,4249Z" style="fill:black;fill-rule:nonzero;"/>
        <path d="M3290,3531C3262,3504 3240,3475 3241,3466C3241,3447 3380,3379 3380,3398C3380,3422 3489,3411 3517,3384C3550,3353 3571,3366 3548,3404C3539,3418 3530,3457 3529,3490C3527,3554 3489,3563 3448,3509C3421,3473 3398,3471 3411,3505C3433,3564 3342,3584 3290,3531Z" style="fill:black;fill-rule:nonzero;"/>
        <path d="M3585,3507C3546,3491 3555,3446 3608,3394L3656,3345L3666,3393C3672,3426 3663,3448 3637,3462C3616,3473 3604,3491 3611,3501C3623,3522 3622,3522 3585,3507Z" style="fill:black;fill-rule:nonzero;"/>
        <path d="M2501,3145C2500,3131 2477,3120 2449,3120C2422,3120 2393,3106 2387,3089C2379,3069 2362,3063 2335,3072C2291,3086 2306,3058 2385,2984C2404,2966 2420,2940 2420,2926C2420,2911 2428,2900 2438,2900C2481,2900 2620,2790 2620,2756C2620,2736 2630,2720 2641,2720C2653,2720 2656,2730 2648,2743C2639,2758 2643,2761 2658,2751C2671,2743 2695,2747 2711,2761C2735,2781 2740,2776 2740,2732C2740,2704 2747,2680 2757,2680C2783,2680 2826,2774 2811,2798C2799,2818 2825,2829 2866,2822C2876,2820 2878,2828 2871,2838C2865,2849 2869,2863 2880,2870C2891,2877 2895,2891 2889,2902C2883,2912 2891,2925 2907,2932C2943,2945 2928,3000 2888,3000C2871,3000 2866,2987 2874,2965C2881,2946 2879,2936 2871,2944C2862,2952 2839,2950 2819,2940C2795,2927 2777,2929 2761,2948C2749,2963 2721,2971 2699,2966C2678,2960 2660,2965 2660,2976C2660,2988 2642,3003 2620,3010C2598,3017 2580,3037 2580,3053C2580,3073 2569,3080 2549,3072C2531,3066 2523,3069 2530,3080C2537,3091 2533,3116 2522,3135C2510,3154 2501,3159 2501,3145Z" style="fill:black;fill-rule:nonzero;"/>
        <path d="M3495,2986C3476,2981 3460,2968 3460,2957C3460,2947 3471,2943 3485,2950C3499,2957 3493,2949 3473,2933C3453,2916 3419,2906 3398,2910C3377,2914 3360,2910 3360,2901C3360,2892 3341,2880 3318,2874C3282,2864 3278,2869 3289,2913C3299,2954 3295,2962 3266,2956C3244,2952 3231,2932 3231,2906C3232,2879 3223,2868 3206,2874C3192,2880 3180,2896 3180,2910C3180,2925 3164,2933 3145,2930C3126,2926 3103,2922 3095,2922C3060,2918 3085,2864 3141,2822C3175,2797 3199,2766 3194,2752C3176,2707 3235,2651 3269,2679C3286,2693 3300,2698 3300,2689C3300,2680 3322,2694 3349,2719C3377,2745 3395,2772 3391,2779C3386,2786 3405,2793 3433,2796C3460,2798 3477,2791 3471,2781C3449,2746 3493,2742 3522,2776C3553,2812 3560,2828 3560,2861C3560,2873 3569,2877 3580,2870C3591,2863 3614,2871 3630,2887C3656,2913 3653,2919 3605,2937C3575,2948 3564,2958 3580,2959C3607,2960 3607,2963 3580,2980C3564,2991 3546,2998 3540,2997C3535,2996 3514,2991 3495,2986ZM3531,2867C3521,2828 3512,2820 3501,2838C3490,2857 3481,2858 3471,2842C3464,2830 3447,2820 3435,2820C3423,2820 3430,2833 3451,2848C3472,2864 3498,2871 3508,2865C3518,2859 3521,2868 3515,2885C3508,2902 3508,2921 3515,2928C3537,2951 3545,2922 3531,2867Z" style="fill:black;fill-rule:nonzero;"/>
        <path d="M2955,2925C2909,2915 2911,2895 2961,2864C2983,2850 2997,2831 2990,2821C2984,2811 2988,2798 2998,2792C3008,2785 3022,2804 3029,2833C3044,2894 3009,2938 2955,2925Z" style="fill:black;fill-rule:nonzero;"/>
        <path d="M2907,2742C2913,2716 2905,2669 2890,2639C2874,2610 2866,2581 2871,2576C2876,2571 2862,2530 2840,2484C2818,2438 2801,2394 2802,2386C2811,2333 2793,2297 2745,2269C2715,2252 2705,2242 2723,2247C2747,2255 2753,2247 2745,2219C2740,2197 2719,2180 2700,2180C2667,2180 2640,2143 2640,2098C2640,2088 2658,2080 2680,2080C2702,2080 2720,2067 2720,2050C2720,2033 2702,2020 2679,2020C2657,2020 2633,2004 2625,1985C2618,1966 2595,1932 2575,1910C2544,1877 2543,1869 2567,1864C2583,1860 2602,1844 2608,1827C2628,1776 2536,1638 2510,1680C2503,1691 2509,1700 2522,1700C2536,1700 2541,1706 2534,1713C2526,1720 2531,1741 2544,1758C2557,1776 2542,1765 2512,1734C2481,1703 2460,1673 2466,1667C2480,1653 2390,1560 2363,1560C2331,1560 2334,1470 2367,1442C2388,1425 2406,1429 2444,1459C2482,1489 2493,1491 2493,1469C2493,1453 2483,1440 2471,1440C2459,1440 2447,1421 2445,1397C2443,1373 2430,1346 2416,1337C2402,1328 2396,1320 2404,1320C2411,1320 2410,1294 2401,1262C2387,1214 2391,1201 2427,1182L2470,1159L2426,1167C2388,1175 2385,1171 2406,1138C2438,1087 2468,1090 2500,1149C2514,1176 2532,1195 2539,1191C2546,1186 2553,1200 2555,1221C2556,1243 2547,1260 2534,1260C2518,1261 2519,1266 2537,1278C2552,1287 2565,1318 2567,1347C2569,1376 2576,1400 2583,1400C2608,1400 2661,1577 2640,1590C2630,1596 2619,1580 2614,1555L2605,1510L2603,1556C2601,1581 2614,1629 2631,1663C2649,1696 2658,1737 2652,1753C2646,1768 2653,1786 2668,1792C2683,1798 2725,1861 2760,1933C2804,2022 2833,2059 2852,2052C2870,2045 2880,2055 2880,2082C2880,2104 2871,2117 2860,2110C2831,2092 2836,2125 2869,2173C2885,2195 2900,2252 2903,2298C2906,2344 2920,2391 2934,2403C2948,2415 2955,2432 2950,2441C2930,2472 3079,2609 3105,2583C3141,2547 3166,2556 3154,2600C3147,2626 3154,2640 3172,2640C3209,2640 3208,2678 3170,2693C3154,2699 3140,2718 3140,2735C3140,2753 3135,2762 3129,2756C3123,2750 3085,2752 3045,2761C2993,2773 2966,2771 2956,2754C2944,2736 2934,2738 2918,2760C2901,2784 2899,2780 2907,2742Z" style="fill:black;fill-rule:nonzero;"/>
        <path d="M3146,1535C3127,1511 3103,1455 3099,1425C3098,1417 3084,1403 3068,1394C3052,1385 3044,1369 3051,1359C3057,1348 3050,1340 3034,1340C3019,1340 2994,1302 2979,1255C2964,1208 2933,1134 2910,1090C2867,1010 2861,931 2888,844C2897,818 2894,787 2882,772C2861,747 2871,720 2902,720C2910,720 2923,756 2930,800C2938,845 2956,893 2972,909C2987,924 3000,943 3000,951C3000,958 3025,1002 3055,1047C3086,1093 3128,1171 3150,1220C3171,1270 3195,1315 3202,1320C3230,1342 3265,1477 3252,1512C3238,1549 3236,1549 3207,1510C3176,1471 3176,1471 3189,1515C3204,1564 3177,1576 3146,1535Z" style="fill:black;fill-rule:nonzero;"/>
        <path d="M5987,1310C5987,1233 5990,1204 5995,1245C5999,1287 5999,1350 5994,1385C5990,1421 5986,1387 5987,1310Z" style="fill:black;fill-rule:nonzero;"/>
        <path d="M2410,1060C2400,1044 2394,1001 2397,964C2401,903 2397,898 2356,909C2318,920 2316,918 2343,901C2379,879 2440,892 2440,922C2440,932 2452,940 2466,940C2480,940 2493,963 2495,990C2498,1022 2489,1040 2471,1040C2456,1040 2440,1051 2435,1064C2430,1081 2422,1080 2410,1060Z" style="fill:black;fill-rule:nonzero;"/>
        <path d="M3480,820C3467,743 3449,675 3439,670C3430,664 3426,641 3430,620C3434,598 3429,580 3419,580C3408,580 3400,568 3400,552C3400,537 3377,474 3349,412C3302,310 3281,290 3234,298C3224,300 3222,293 3228,283C3244,257 3194,160 3165,160C3132,160 3133,182 3171,235C3199,275 3199,278 3171,268C3154,261 3140,243 3140,228C3140,213 3131,200 3119,200C3108,200 3080,169 3057,130C3035,92 3005,60 2990,60C2976,60 2954,47 2940,30C2918,4 2933,0 3055,0C3192,0 3196,2 3220,59C3233,92 3259,123 3277,129C3295,135 3328,174 3351,215C3374,259 3404,288 3422,285C3445,281 3451,294 3445,336C3439,376 3451,406 3490,445C3520,474 3538,506 3532,517C3526,527 3534,547 3550,560C3567,574 3580,601 3580,621C3580,641 3589,663 3600,670C3626,686 3626,720 3600,720C3588,720 3571,700 3560,675C3536,616 3462,531 3448,545C3442,551 3469,615 3509,686C3578,812 3601,895 3560,870C3549,863 3540,836 3540,809C3540,782 3530,760 3518,760C3498,760 3504,822 3533,925C3538,944 3534,960 3523,960C3512,960 3493,897 3480,820ZM3140,104C3140,74 3084,10 3070,24C3048,45 3080,120 3111,120C3127,120 3140,113 3140,104Z" style="fill:black;fill-rule:nonzero;"/>
        <path d="M2260,859C2218,846 2216,843 2250,840C2272,838 2279,832 2265,827C2251,821 2240,808 2240,798C2240,787 2267,793 2300,810C2333,827 2360,844 2360,848C2360,866 2306,872 2260,859Z" style="fill:black;fill-rule:nonzero;"/>
        <path d="M2933,151C2927,135 2886,102 2841,76C2797,51 2760,23 2760,15C2760,-11 2814,-1 2839,29C2852,45 2889,63 2921,70C2954,77 2980,91 2980,100C2980,109 2985,131 2992,148C3000,169 2993,180 2974,180C2958,180 2939,167 2933,151Z" style="fill:black;fill-rule:nonzero;"/>
    </g>
</svg>
