<?xml version="1.0" standalone="no"?>
<!DOCTYPE svg PUBLIC "-//W3C//DTD SVG 1.1//EN" "http://www.w3.org/Graphics/SVG/1.1/DTD/svg11.dtd">
<svg width="100%" height="100%" viewBox="0 0 51 67" version="1.1" xmlns="http://www.w3.org/2000/svg" xmlns:xlink="http://www.w3.org/1999/xlink" xml:space="preserve" style="fill-rule:evenodd;clip-rule:evenodd;stroke-linejoin:round;stroke-miterlimit:1.41421;">
    <g transform="matrix(1,0,0,1,0,-1)">
        <path d="M31.862,37.946C31.862,38.906 32.648,39.684 33.618,39.684C34.588,39.684 35.375,38.906 35.375,37.946C35.375,36.986 34.588,36.208 33.618,36.208C32.648,36.208 31.862,36.986 31.862,37.946M38.056,34.856C37.961,34.856 37.867,34.817 37.798,34.742C36.978,33.847 35.714,33.267 34.329,33.152C32.967,33.038 31.64,33.393 30.685,34.119C30.531,34.236 30.312,34.206 30.194,34.052C30.077,33.898 30.108,33.679 30.262,33.562C31.353,32.731 32.857,32.329 34.387,32.455C35.946,32.584 37.377,33.246 38.314,34.27C38.445,34.412 38.435,34.634 38.293,34.764C38.225,34.825 38.141,34.856 38.056,34.856M43.102,41.188C43.047,41.188 42.992,41.187 42.936,41.184C42.743,41.175 42.593,41.012 42.602,40.819C42.61,40.627 42.775,40.463 42.966,40.485C44.648,40.564 46.108,39.283 46.177,37.702C46.212,36.915 45.937,36.162 45.402,35.581C44.867,34.999 44.135,34.66 43.342,34.625C43.149,34.616 42.999,34.453 43.007,34.26C43.016,34.067 43.17,33.902 43.373,33.926C44.352,33.969 45.255,34.388 45.916,35.106C46.579,35.826 46.92,36.758 46.876,37.732C46.792,39.64 45.082,41.188 43.102,41.188M7.291,40.822C5.386,40.822 3.772,39.351 3.635,37.431C3.566,36.458 3.882,35.517 4.525,34.78C5.167,34.044 6.059,33.601 7.036,33.532C7.212,33.516 7.396,33.663 7.41,33.856C7.424,34.049 7.278,34.216 7.085,34.23C6.294,34.285 5.572,34.645 5.052,35.24C4.533,35.836 4.277,36.596 4.333,37.382C4.449,39.004 5.861,40.222 7.505,40.115C7.682,40.101 7.865,40.246 7.879,40.439C7.893,40.632 7.747,40.799 7.554,40.813C7.466,40.819 7.379,40.822 7.291,40.822" style="fill:black;"/>
        <path d="M25.863,55.525C23.019,55.525 20.368,54.723 18.59,53.325C18.437,53.205 18.411,52.985 18.53,52.833C18.65,52.681 18.872,52.655 19.021,52.775C20.679,54.078 23.173,54.825 25.863,54.825C28.553,54.825 31.047,54.078 32.704,52.775C32.854,52.654 33.076,52.681 33.196,52.833C33.315,52.985 33.289,53.205 33.136,53.325C31.358,54.723 28.706,55.525 25.863,55.525" style="fill:black;"/>
        <g transform="matrix(1,0,0,1,15,0.11)">
            <path d="M6.609,5.736C6.443,5.736 6.296,5.617 6.265,5.448C5.81,2.91 3.356,1.214 0.782,1.664C0.594,1.698 0.41,1.571 0.377,1.38C0.343,1.19 0.47,1.008 0.66,0.975C3.605,0.452 6.43,2.407 6.954,5.324C6.988,5.514 6.862,5.696 6.672,5.731C6.651,5.735 6.63,5.736 6.609,5.736" style="fill:black;"/>
        </g>
        <path d="M21.62,5.849C21.602,5.849 21.584,5.848 21.567,5.845C21.375,5.816 21.244,5.638 21.274,5.447C21.59,3.371 23.55,1.94 25.647,2.25C25.837,2.279 25.969,2.456 25.94,2.648C25.912,2.839 25.727,2.968 25.543,2.942C23.829,2.684 22.224,3.856 21.965,5.552C21.939,5.725 21.789,5.849 21.62,5.849" style="fill:black;"/>
        <path d="M49.043,38.874C48.656,38.874 48.343,38.561 48.343,38.174L48.343,29.518C48.343,22.342 45.414,15.341 40.508,10.789C36.373,6.952 31.297,5.138 25.823,5.549C24.539,5.645 23.387,5.883 21.944,6.236C21.573,6.328 21.19,6.099 21.098,5.723C21.006,5.348 21.236,4.969 21.612,4.877C23.124,4.507 24.338,4.257 25.719,4.154C31.5,3.719 37.094,5.712 41.461,9.763C46.647,14.575 49.742,21.96 49.742,29.518L49.742,38.174C49.742,38.561 49.43,38.874 49.043,38.874M21.585,16.875C21.392,16.875 21.235,16.719 21.235,16.525L21.235,10.318C21.235,10.124 21.392,9.968 21.585,9.968C21.778,9.968 21.935,10.124 21.935,10.318L21.935,16.525C21.935,16.719 21.778,16.875 21.585,16.875" style="fill:black;"/>
        <path d="M1.363,38.416C0.976,38.416 0.663,38.103 0.663,37.716L0.663,29.519C0.663,20.923 4.053,12.773 9.51,8.249C13.179,5.205 17.427,4.031 21.799,4.855C22.178,4.926 22.428,5.292 22.357,5.672C22.286,6.052 21.92,6.304 21.54,6.23C17.594,5.488 13.742,6.557 10.403,9.326C5.259,13.591 2.063,21.329 2.063,29.519L2.063,37.716C2.063,38.103 1.75,38.416 1.363,38.416M26.231,49.086C26.194,49.086 26.157,49.086 26.12,49.084C25.927,49.077 25.776,48.914 25.783,48.721C25.791,48.528 25.96,48.373 26.146,48.385C26.897,48.415 27.577,48.075 28.01,47.482C28.826,46.364 28.238,45.077 27.486,44.314C26.831,43.647 26.329,42.629 25.994,41.286C25.947,41.099 26.062,40.909 26.249,40.862C26.437,40.815 26.626,40.929 26.673,41.117C26.977,42.336 27.418,43.247 27.985,43.823C29.209,45.065 29.445,46.701 28.576,47.894C28.027,48.646 27.157,49.086 26.231,49.086" style="fill:black;"/>
        <g transform="matrix(1,0,0,1,6,21.11)">
            <path d="M19.316,46C18.035,46 16.754,45.743 15.561,45.228L14.647,44.834C11.226,43.359 7.984,40.149 5.753,36.028L3.91,32.623C2.65,30.297 1.894,27.784 1.663,25.153L0.227,0.698C0.216,0.505 0.363,0.339 0.556,0.329C0.775,0.319 0.914,0.465 0.925,0.658L2.361,25.102C2.583,27.627 3.311,30.048 4.524,32.289L6.368,35.694C8.526,39.681 11.645,42.778 14.924,44.191L15.838,44.586C18.04,45.536 20.569,45.538 22.774,44.594L23.732,44.184C27.026,42.773 30.157,39.674 32.322,35.681L34.144,32.322C35.372,30.061 36.104,27.614 36.32,25.053L36.601,19.716C36.61,19.523 36.777,19.38 36.968,19.385C37.161,19.395 37.309,19.56 37.299,19.752L37.018,25.101C36.792,27.77 36.033,30.309 34.759,32.656L32.938,36.015C30.698,40.144 27.443,43.356 24.008,44.827L23.049,45.237C21.862,45.746 20.589,46 19.316,46" style="fill:black;"/>
        </g>
        <path d="M42.95,41.194L42.932,41.194C42.739,41.184 42.591,41.019 42.601,40.826L42.946,34.263L43.245,21.629C43.251,21.436 43.415,21.295 43.603,21.288C43.797,21.292 43.95,21.453 43.945,21.646L43.644,34.29L43.3,40.862C43.29,41.049 43.136,41.194 42.95,41.194M18.15,37.946C18.15,38.906 17.363,39.684 16.394,39.684C15.423,39.684 14.637,38.906 14.637,37.946C14.637,36.986 15.423,36.208 16.394,36.208C17.363,36.208 18.15,36.986 18.15,37.946M11.955,34.856C11.87,34.856 11.786,34.825 11.718,34.764C11.576,34.634 11.566,34.412 11.697,34.27C12.634,33.246 14.065,32.584 15.624,32.455C17.153,32.331 18.657,32.731 19.75,33.562C19.904,33.679 19.934,33.898 19.817,34.052C19.7,34.207 19.481,34.236 19.327,34.119C18.371,33.393 17.043,33.037 15.682,33.152C14.297,33.267 13.033,33.847 12.213,34.742C12.144,34.817 12.05,34.856 11.955,34.856M4.594,26.1C4.561,26.1 4.527,26.095 4.492,26.085C4.308,26.029 4.203,25.833 4.259,25.648C6.044,19.764 11.655,15.654 17.906,15.654C19.147,15.654 20.335,15.821 21.646,16.18C21.833,16.231 21.942,16.423 21.891,16.61C21.841,16.796 21.652,16.906 21.462,16.855C20.213,16.513 19.083,16.354 17.906,16.354C11.96,16.354 6.624,20.26 4.929,25.851C4.883,26.002 4.744,26.1 4.594,26.1" style="fill:black;"/>
        <path d="M45.741,25.897C45.6,25.897 45.467,25.811 45.413,25.671C42.97,19.23 36.628,14.901 29.633,14.901C26.849,14.901 24.213,15.544 21.797,16.812C21.627,16.9 21.414,16.836 21.325,16.664C21.235,16.493 21.301,16.281 21.472,16.191C23.99,14.871 26.735,14.202 29.633,14.202C36.917,14.202 43.521,18.711 46.068,25.423C46.137,25.604 46.046,25.806 45.865,25.874C45.824,25.89 45.782,25.897 45.741,25.897" style="fill:black;"/>
        <path d="M35.14,21.353C34.98,21.353 34.836,21.243 34.799,21.082C34.332,19.048 32.82,16.333 28.266,14.947C28.081,14.891 27.977,14.695 28.033,14.51C28.089,14.326 28.282,14.221 28.47,14.277C33.344,15.761 34.973,18.711 35.481,20.925C35.524,21.113 35.407,21.301 35.219,21.344C35.192,21.35 35.165,21.353 35.14,21.353" style="fill:black;"/>
        <g transform="matrix(1,0,0,1,46,37.11)">
            <path d="M1.908,14.895C2.421,16.019 2.906,17.081 2.982,19.288C3.057,21.493 2.647,22.585 2.213,23.741C1.749,24.974 1.269,26.249 1.355,28.734C1.37,29.185 1.407,29.599 1.455,30L2.864,30C2.808,29.59 2.769,29.16 2.753,28.687C2.678,26.48 3.088,25.389 3.522,24.233C3.987,23 4.467,21.724 4.381,19.239C4.295,16.753 3.729,15.513 3.18,14.313C2.668,13.189 2.183,12.128 2.106,9.922C2.031,7.717 2.441,6.625 2.877,5.469C3.313,4.307 3.765,3.105 3.744,0.884C3.74,0.5 3.428,0.191 3.044,0.191L3.037,0.191C2.65,0.195 2.341,0.512 2.345,0.898C2.363,2.857 1.976,3.886 1.567,4.976C1.102,6.21 0.623,7.485 0.709,9.971C0.794,12.456 1.36,13.695 1.908,14.895" style="fill:black;"/>
        </g>
        <path d="M0.829,65.784C0.811,66.286 0.782,66.721 0.746,67.11L2.148,67.11C2.183,66.706 2.211,66.288 2.227,65.832C2.311,63.404 2.055,62.16 1.807,60.957C1.566,59.783 1.337,58.674 1.414,56.412C1.493,54.15 1.797,53.06 2.119,51.905C2.449,50.722 2.789,49.498 2.873,47.069C2.957,44.64 2.701,43.396 2.454,42.193C2.211,41.019 1.983,39.91 2.061,37.648C2.075,37.262 1.773,36.938 1.386,36.925C1.008,36.907 0.677,37.214 0.663,37.6C0.579,40.029 0.835,41.273 1.082,42.475C1.325,43.65 1.553,44.759 1.475,47.021C1.397,49.284 1.093,50.374 0.771,51.529C0.441,52.712 0.1,53.935 0.017,56.364C-0.067,58.793 0.188,60.036 0.437,61.24C0.678,62.414 0.906,63.522 0.829,65.784" style="fill:black;"/>
    </g>
</svg>
