<?xml version="1.0" encoding="utf-8"?>
<!-- Generator: Adobe Illustrator 16.0.3, SVG Export Plug-In . SVG Version: 6.00 Build 0)  -->
<!DOCTYPE svg PUBLIC "-//W3C//DTD SVG 1.1//EN" "http://www.w3.org/Graphics/SVG/1.1/DTD/svg11.dtd">
<svg version="1.1"
	 id="svg2" xmlns:dc="http://purl.org/dc/elements/1.1/" xmlns:cc="http://creativecommons.org/ns#" xmlns:rdf="http://www.w3.org/1999/02/22-rdf-syntax-ns#" xmlns:svg="http://www.w3.org/2000/svg" xmlns:sodipodi="http://sodipodi.sourceforge.net/DTD/sodipodi-0.dtd" xmlns:inkscape="http://www.inkscape.org/namespaces/inkscape" inkscape:output_extension="org.inkscape.output.svg.inkscape" inkscape:version="0.46" sodipodi:docname="dessin.svg" sodipodi:version="0.32"
	 xmlns="http://www.w3.org/2000/svg" xmlns:xlink="http://www.w3.org/1999/xlink" x="0px" y="0px" width="800px" height="900px"
	 viewBox="0 0 800 900" enable-background="new 0 0 800 900" xml:space="preserve">
<defs>
	
	
		<inkscape:perspective  id="perspective10" inkscape:vp_z="744.09448 : 526.18109 : 1" inkscape:vp_y="0 : 1000 : 0" inkscape:vp_x="0 : 526.18109 : 1" sodipodi:type="inkscape:persp3d" inkscape:persp3d-origin="372.04724 : 350.78739 : 1">
		</inkscape:perspective>
	
		<inkscape:perspective  id="perspective2447" inkscape:vp_z="744.09448 : 526.18109 : 1" inkscape:vp_y="0 : 1000 : 0" inkscape:vp_x="0 : 526.18109 : 1" sodipodi:type="inkscape:persp3d" inkscape:persp3d-origin="372.04724 : 350.78739 : 1">
		</inkscape:perspective>
</defs>
<sodipodi:namedview  showgrid="false" inkscape:cy="378.99408" inkscape:cx="722.18935" inkscape:zoom="0.56333333" borderopacity="1.0" bordercolor="#666666" pagecolor="#ffffff" id="base" inkscape:window-y="-4" inkscape:window-x="-4" inkscape:window-height="712" inkscape:window-width="1024" inkscape:current-layer="layer1" inkscape:document-units="px" inkscape:pageshadow="2" inkscape:pageopacity="0.0">
	</sodipodi:namedview>
<path id="path2453" fill="#FBB800" stroke="#000000" stroke-width="7" d="M409.029,616.85c1.814-1.318,3.025-2.715,5.263-3.509
	c2.093-0.742,4.471-1.149,6.433-0.585s3.626,1.99,4.969,4.68c0.395,0.785,0.551,1.715,1.169,2.337
	c1.552,1.552,3.868,3.875,6.726,5.848c2.858,1.973,6.404,3.801,9.938,3.801c7.688,0,14.854,2.316,22.222,4.681
	c7.365,2.355,14.827,4.675,22.513,4.675c4.901,0,11.246,0.116,17.251-0.584c5.998-0.701,11.656-2.166,15.784-5.264
	c1.576-1.181,3.106-2.328,4.681-3.508c2.842-2.133,7.963-5.015,13.154-7.016c5.194-2.005,10.512-3.337,14.033-2.633
	c9.1,1.822,1.293,0.646,7.017,3.512c4.038,2.018,11.23,3.387,18.714,3.504c7.48,0.118,15.192-1.018,20.173-3.504
	c9.313-4.659,21.461-15.475,30.695-23.391c8.631-7.398,22.583-23.751,33.041-30.7c7.079-4.705,13.998-11.06,20.172-16.081
	c6.174-5.017,11.566-8.77,16.371-8.77c6.18,0,8.757-0.878,10.817-0.585c2.062,0.295,3.73,1.712,8.188,6.432
	c3.48,3.685,6.487,5.48,9.063,5.849c2.576,0.366,4.694-0.57,7.018-2.338c4.645-3.542,9.443-10.197,16.957-15.206
	c10.342-6.893,14.703-11.048,17.541-15.2c2.839-4.153,4.209-8.319,8.478-15.495c-2.95-5.307-3.628-4.708-6.432-5.264
	c-2.801-0.557-7.787-2.401-19.587-12.569c-5.141-4.431-7.418-8.705-9.064-13.451c-1.645-4.746-2.531-9.985-4.969-16.081
	c-2.406-6.013-0.882-11.371,0.291-16.371c0.589-2.503,1.16-4.644,0.877-7.016c-0.284-2.375-1.179-4.98-3.508-7.311
	c-8.052-8.052-11.568-10.932-21.344-23.389c-6.444-8.213-12.659-12.853-18.711-15.496c-6.052-2.642-11.858-3.32-17.249-3.8
	c-5.392-0.481-10.449-0.903-14.908-2.632c-4.464-1.729-8.434-4.724-11.695-11.109c-3.115-6.095-3.09-11.026-1.464-15.203
	c1.629-4.177,4.751-7.673,8.479-10.818c3.728-3.147,7.923-6.063,11.109-9.065c3.184-3,5.555-6.198,5.555-9.939
	c-0.759-7.417-0.793-14.058-1.462-21.343c-0.668-7.285-1.913-15.094-5.554-24.558c5.712-3.979,10.728-10.78,16.372-19.881
	c5.643-9.103,11.892-20.612,19.004-33.329c-5.922-10.928-11.866-18.013-18.128-22.513c-6.26-4.5-13.077-6.44-21.05-7.017
	c-2.04-0.149-2.669-1.114-2.63-2.632c0.038-1.519,0.727-3.452,2.045-5.847c2.639-4.79,7.262-10.75,10.235-16.08
	c3.851-4.412,6.063-9.698,8.77-14.619c-32.545-0.596-81.859-12.77-123.086,3.801c-30.344,12.196-45.294,23.502-83.616,35.668
	c-37.332,11.852-49.244,11.326-84.494,38.007c-22.12,16.746-84.43,63.024-96.479,87.126c-11.33,22.657-15.497,36.238-15.497,69.583
	c0,35.601-19.642,67.353-4.969,124.547c6.61,25.765,6.183,42.286-15.495,61.396c12.328,19.645,39.081,32.745,60.227,32.745
	c21.314,0,47.448,20.385,64.905,4.385C396.765,605.924,407.904,607.321,409.029,616.85z M55.909,275.398
	c-39.106,31.488-54.291,20.952-38.942,51.646c9.553,19.107,65.602-22.354,72.496-26.452c65.013-38.631,62.148-44.816,48.772-63.6
	C124.86,218.212,75.191,259.875,55.909,275.398z M148.366,207.55c16.751,39.23,105.252-25.489,155.687-40.68
	c80.212-24.158,51.011-66.906-15.215-31.686C226.638,168.263,135.981,178.549,148.366,207.55z M360.899,123.055
	c39.514,60.106,36.229,5.167,150.466,8.993c20.392,0.99,38.958-0.03,56.437-8.77c7.831-3.917-31.909-37.671-49.006-33.565
	C385.738,121.67,356.647,88.001,360.899,123.055z M595.191,122.164c63.468-2.866,86.05-14.155,114.353-25.114
	c61.607-23.854-20.492-24.906-47.619-26.181C623.455,69.063,601.626,92.091,595.191,122.164z"/>
</svg>
