<?xml version="1.0" standalone="no"?>
<!DOCTYPE svg PUBLIC "-//W3C//DTD SVG 1.1//EN" "http://www.w3.org/Graphics/SVG/1.1/DTD/svg11.dtd">
<svg width="100%" height="100%" viewBox="0 0 1231 1700" version="1.1" xmlns="http://www.w3.org/2000/svg" xmlns:xlink="http://www.w3.org/1999/xlink" xml:space="preserve" style="fill-rule:evenodd;clip-rule:evenodd;stroke-linecap:round;stroke-linejoin:round;stroke-miterlimit:1.41421;">
    <path d="M545,802L680,667L756,667L774,685L774,726L693,807L693,823L661,855L638,855L611,828L570,828L545,803L545,802" style="fill:none;stroke-width:1px;stroke:black;"/>
    <g transform="matrix(1,0,0,1,-2,1)">
        <path d="M7,1422L45,1384L100,1384L121,1405L176,1405L200,1381L200,1367L224,1367L241,1384L269,1384L277,1376L291,1376L291,1405L224,1472L164,1472L164,1446L81,1446L81,1472L57,1472L7,1422Z" style="fill:none;stroke-width:1px;stroke:black;"/>
    </g>
    <path d="M85,1273L97,1261L158,1261L173,1276L173,1289L128,1289L116,1301L112,1301L85,1273Z" style="fill:none;stroke-width:1px;stroke:black;"/>
    <path d="M86,1219L106,1239L133,1212L138,1212L172,1246L217,1246L231,1232L185,1186L117,1186L86,1217L85,1218L86,1219Z" style="fill:none;stroke-width:1px;stroke:black;"/>
    <g transform="matrix(1,0,0,1,0,1)">
        <path d="M143,1156L154,1167L175,1146L230,1201L260,1201L277,1218L311,1218L319,1210L260,1151L235,1151L204,1120L179,1120L143,1156Z" style="fill:none;stroke-width:1px;stroke:black;"/>
    </g>
    <path d="M805,155L863,155L880,138L880,134L822,134L805,151L805,155Z" style="fill:none;stroke-width:1px;stroke:black;"/>
    <g transform="matrix(1,0,0,1,0,1)">
        <path d="M641,185L656,170L751,170L751,173L734,190L689,190L676,203L641,203L641,185Z" style="fill:none;stroke-width:1px;stroke:black;"/>
    </g>
    <path d="M559,190L494,255L507,268L524,251L537,251L574,214L592,214L613,193L613,190L559,190Z" style="fill:none;stroke-width:1px;stroke:black;"/>
    <path d="M404,348L430,348L484,294L470,280L402,348L404,348Z" style="fill:none;stroke-width:1px;stroke:black;"/>
    <path d="M366,480L366,409L409,366L427,384L427,439L403,463L403,480L366,480Z" style="fill:none;stroke-width:1px;stroke:black;"/>
    <g id="Layer1">
        <path d="M1065,684L1065,607L1087,585L1163,585L1163,461L1195,429L1195,317L1183,305L1183,244L1127,244L1127,206L1061,206L1061,146L961,146L941,166L907,166L867,206L734,206L683,257L657,257L591,323L591,506L619,534L698,534L683,549L683,635L705,657L763,657L763,666L778,681L778,728L698,808L698,825L661,862L637,862L614,839L572,839L546,813L519,813L514,808L544,778L544,751L505,712L505,666L553,666L581,638L581,590L519,590L519,537L485,503L459,503L439,523L435,523L404,492L365,492L365,595L347,613L347,741L324,764L324,813L298,839L298,912L185,1025L185,1094L237,1146L268,1146L303,1181L390,1181L395,1186L395,1191L334,1191L334,1209L310,1233L247,1233L209,1271L209,1275L233,1299L286,1299L303,1316L303,1335L250,1335L212,1297L130,1297L114,1313L108,1313L70,1275L49,1275L11,1313L59,1361L127,1361L143,1377L181,1377L181,1343L218,1343L241,1366L292,1366L292,1377L361,1377L361,1354L347,1340L371,1316L390,1316L390,1340L432,1340L478,1294L496,1294L496,1322L475,1322L475,1340L535,1340L562,1313L562,1294L581,1294L581,1340L641,1400L710,1400L730,1380L739,1380L795,1436L844,1436L844,1517L809,1552L809,1655L941,1655L941,1640L961,1620L961,1547L928,1547L928,1521L882,1521L964,1439L964,1405L935,1405L935,1370L970,1335L970,1223L865,1118L865,1065L918,1065L918,1038L967,1038L994,1065L1006,1065L1006,1038L1038,1038L1070,1006L1127,1006L1127,954L1093,920L1093,888L1118,888L1195,811L1195,728L1151,684L1065,684Z" style="fill:none;stroke-width:1px;stroke:black;"/>
    </g>
</svg>
